#!OML:ASF X:\für Bonn\!DataBase\2005_08_10_Bjorn_Final\c3d\bjorn.ASF
:FULLY-SPECIFIED
:DEGREES
78
root 1.06884 8.22421 3.93928 -190.255 1.82008 -176.932
lowerback 33.568 -3.5684 7.21096
upperback 12.7306 2.04813 -0.751508
thorax -3.01231 3.07345 -5.33063
lowerneck -26.8851 -0.40705 2.02281
upperneck -0.206342 -2.23491 -2.32344
head 3.94022 -1.77631 -1.33513
rclavicle 3.97569e-016 6.75868e-015
rhumerus 74.8774 1.55306 -57.3635
rradius 17.6251
rwrist 22.0171
rhand -16.765 13.5342
rfingers 7.12502
rthumb 9.46213 -16.2334
lclavicle 3.97569e-016 6.75868e-015
lhumerus 83.993 -12.0673 48.0837
lradius 15.0535
lwrist -24.3783
lhand -16.334 -5.09565
lfingers 7.12502
lthumb 9.87792 24.6526
rfemur 11.4749 -81.2273 -92.5131
rtibia 150.671
rfoot -65.8841 66.1318
rtoes -19.7978
lfemur 31.1038 81.3368 106.876
ltibia 154.416
lfoot -54.1749 -36.7018
ltoes -30.6434
79
root 1.05719 8.20312 3.93766 -190.37 1.85479 -176.911
lowerback 33.7281 -3.56736 7.21072
upperback 12.6915 2.06579 -0.781393
thorax -3.10949 3.07954 -5.37336
lowerneck -27.0511 -0.413832 2.05451
upperneck -0.0542186 -2.2479 -2.3361
head 4.01017 -1.78109 -1.34905
rclavicle -1.96797e-014 -2.94201e-014
rhumerus 74.9749 1.45744 -56.9467
rradius 17.5265
rwrist 21.5108
rhand -16.8449 13.437
rfingers 7.12502
rthumb 9.38502 -16.3341
lclavicle -1.96797e-014 -2.94201e-014
lhumerus 83.897 -12.1153 48.2836
lradius 14.9722
lwrist -24.7135
lhand -15.5872 -5.12296
lfingers 7.12502
lthumb 10.5984 24.5898
rfemur 12.7445 -81.0911 -94.0974
rtibia 150.84
rfoot -65.737 66.3429
rtoes -19.5583
lfemur 33.6994 81.0264 109.705
ltibia 154.599
lfoot -54.2797 -36.7333
ltoes -30.7862
80
root 1.04384 8.19871 3.93623 -190.426 1.90476 -176.912
lowerback 33.8003 -3.54876 7.18623
upperback 12.6638 2.08327 -0.795792
thorax -3.1635 3.08302 -5.38439
lowerneck -27.2093 -0.425815 2.01903
upperneck 0.0544361 -2.25405 -2.33327
head 4.06608 -1.78437 -1.3464
rclavicle 9.54166e-015 1.27222e-014
rhumerus 75.106 1.39012 -56.194
rradius 17.4654
rwrist 20.7973
rhand -16.8282 13.3265
rfingers 7.12502
rthumb 9.40111 -16.4438
lclavicle 9.54166e-015 1.27222e-014
lhumerus 83.9399 -12.0993 48.1535
lradius 14.7669
lwrist -24.7591
lhand -14.9725 -5.23271
lfingers 7.12502
lthumb 11.1913 24.4488
rfemur 10.598 -81.1555 -92.0804
rtibia 150.891
rfoot -64.8317 66.5254
rtoes -19.3865
lfemur 34.7534 80.9105 110.786
ltibia 154.669
lfoot -54.2759 -36.6447
ltoes -31.0934
81
root 1.03105 8.21107 3.93565 -190.413 1.92106 -176.927
lowerback 33.7937 -3.53254 7.16457
upperback 12.6371 2.08139 -0.832074
thorax -3.18981 3.07553 -5.41197
lowerneck -27.407 -0.440938 2.0126
upperneck 0.199005 -2.27175 -2.33794
head 4.13815 -1.79316 -1.3528
rclavicle 1.33186e-014 -4.77083e-015
rhumerus 75.2301 1.31277 -55.5607
rradius 17.3911
rwrist 20.2749
rhand -16.6885 13.1885
rfingers 7.12502
rthumb 9.53594 -16.5757
lclavicle 1.33186e-014 -4.77083e-015
lhumerus 84.1193 -12.0646 47.5302
lradius 14.5233
lwrist -24.4013
lhand -14.5645 -5.28498
lfingers 7.12502
lthumb 11.5848 24.3748
rfemur 5.81974 -81.3327 -87.2306
rtibia 150.844
rfoot -63.6528 66.3046
rtoes -19.7436
lfemur 32.5132 81.2153 108.395
ltibia 154.606
lfoot -53.7428 -36.9202
ltoes -30.7467
82
root 1.01823 8.24114 3.93556 -190.306 1.96912 -176.914
lowerback 33.7117 -3.48603 7.14998
upperback 12.5951 2.09939 -0.840231
thorax -3.20318 3.06993 -5.41873
lowerneck -27.6145 -0.459348 1.98101
upperneck 0.335466 -2.28955 -2.32234
head 4.20934 -1.80158 -1.34886
rclavicle -2.82274e-014 -6.36111e-015
rhumerus 75.244 1.26275 -55.2708
rradius 17.3387
rwrist 20.2202
rhand -16.5069 13.1007
rfingers 7.12502
rthumb 9.71115 -16.6554
lclavicle -2.82274e-014 -6.36111e-015
lhumerus 84.554 -11.9882 46.2881
lradius 14.0344
lwrist -23.5507
lhand -14.5131 -5.41332
lfingers 7.12502
lthumb 11.6343 24.2437
rfemur -3.05895 -81.5414 -78.0181
rtibia 150.669
rfoot -61.4838 66.2503
rtoes -19.7245
lfemur 27.8864 81.7966 103.521
ltibia 154.439
lfoot -53.0276 -37.1225
ltoes -30.6042
